<?xml version="1.0" encoding="UTF-8"?>
<svg version="1.1" xmlns="http://www.w3.org/2000/svg" width="512" height="512">
<path d="M0 0 C11.72552666 5.68039627 20.47225927 8.09634043 33.4375 8.875 C49.13041572 9.97909001 62.67350354 11.26398845 74.125 23.1875 C78.68838132 28.51009874 82.49487026 34.33657292 86.23779297 40.25292969 C92.48099393 49.99600952 99.30340283 56.82199902 109.125 62.9375 C123.06328227 71.94172714 133.944112 80.08131236 137.75 96.9375 C138.52503597 102.76889469 138.95849982 108.62438704 139.40673828 114.48779297 C140.59158506 129.62267058 144.90260356 140.84571192 151.45507812 154.48046875 C157.79742532 167.88641894 159.80888821 179.27766381 155.36328125 193.74609375 C152.98839415 200.30444842 149.77157467 206.54660916 146.63549805 212.7668457 C143.93854164 218.16306953 141.84845933 222.99637052 140.75 228.9375 C140.56431017 229.68162392 140.37862034 230.42574783 140.18730354 231.19242096 C139.45179445 235.0084658 139.078503 237.7454286 141.03167343 241.21278381 C143.07327848 243.60905093 145.23150817 245.76839331 147.51513672 247.93554688 C148.35219147 248.77260162 149.18924622 249.60965637 150.05166626 250.47207642 C152.34258636 252.75244977 154.65593229 255.00663094 156.98157644 257.2514782 C159.41143707 259.60861764 161.80958514 261.99758421 164.21121216 264.38342285 C168.76075281 268.89367409 173.33715936 273.37558236 177.92434227 277.84750986 C183.65339431 283.43509212 189.34870795 289.05668957 195.04296875 294.6796875 C197.03419996 296.64578575 199.02562989 298.61168223 201.0173645 300.57727051 C201.49950853 301.05310467 201.98165257 301.52893884 202.47840703 302.01919222 C205.81077166 305.30596784 209.15287803 308.58256912 212.49899292 311.85534668 C213.38337036 312.72166718 214.2677478 313.58798767 215.17892456 314.4805603 C216.83611975 316.10320784 218.49530822 317.72382301 220.15679932 319.34207153 C220.88323639 320.05398651 221.60967346 320.76590149 222.35812378 321.49938965 C222.99269438 322.11875145 223.62726498 322.73811325 224.28106499 323.37624359 C226.39738395 325.62557151 226.73412364 326.7509528 227 329.875 C226.75 332.9375 226.75 332.9375 225.72314453 334.46992493 C222.76238162 336.67206561 219.43137517 337.48544659 215.9296875 338.48120117 C215.13427551 338.71572495 214.33886353 338.95024872 213.51934814 339.19187927 C210.89058168 339.96427132 208.25797387 340.72255486 205.625 341.48046875 C203.79779915 342.01352995 201.97081615 342.54733844 200.14404297 343.0818634 C196.31584524 344.19982654 192.48584016 345.31128299 188.65429688 346.41772461 C183.73852539 347.83742694 178.82637223 349.2691832 173.91537476 350.70530224 C170.14349037 351.80760979 166.3703458 352.90554628 162.59674072 354.0019474 C160.78475312 354.52856658 158.97302507 355.05607964 157.16156006 355.58449364 C154.63232324 356.32113955 152.10158771 357.05237636 149.5703125 357.78198242 C148.8190509 358.00168701 148.06778931 358.2213916 147.29376221 358.44775391 C144.34547885 359.29239899 141.83408416 359.9375 138.75 359.9375 C138.40775391 361.87798218 138.40775391 361.87798218 138.05859375 363.85766602 C136.47054915 371.77301082 134.08985833 379.47719123 131.8125 387.21484375 C131.32667904 388.87481711 130.84108722 390.53485754 130.35571289 392.19496155 C129.34317036 395.65433315 128.32747466 399.11275909 127.30957031 402.57055664 C126.00516178 407.00276467 124.70937455 411.43744061 123.41596985 415.87287045 C122.41763534 419.29253605 121.41448036 422.71077294 120.40988159 426.12860298 C119.92987994 427.76402622 119.45145505 429.39991312 118.97463989 431.03626823 C118.30965162 433.31595041 117.63812469 435.59360503 116.96484375 437.87084961 C116.67176834 438.88306328 116.67176834 438.88306328 116.37277222 439.91572571 C115.45481227 442.99626673 114.55282545 445.23326183 112.75 447.9375 C110.4375 448.8125 110.4375 448.8125 107.75 448.9375 C104.17205103 447.085268 101.46940305 444.89728044 98.6517334 442.03936768 C97.86956955 441.2512822 97.0874057 440.46319672 96.28153992 439.65122986 C95.43775284 438.79082596 94.59396576 437.93042206 93.72460938 437.04394531 C92.34351152 435.64850249 90.96240959 434.25306368 89.58115387 432.85777712 C88.10261184 431.36246634 86.62651241 429.86477964 85.1509552 428.36652374 C82.07316226 425.24250332 78.98552883 422.12833621 75.89587402 419.01605225 C67.113462 410.16684724 58.33953939 401.30934524 49.58642578 392.43115234 C44.74776754 387.52351757 39.89852055 382.62661135 35.03715563 377.74146533 C31.96138242 374.64947545 28.89922539 371.54478426 25.84632111 368.43022108 C23.50143494 366.04588424 21.13701494 363.68123321 18.77539062 361.31347656 C17.50971001 360.01072533 17.50971001 360.01072533 16.21846008 358.68165588 C15.43629623 357.9048497 14.65413239 357.12804352 13.8482666 356.32769775 C13.17355568 355.64485844 12.49884476 354.96201912 11.80368805 354.2584877 C9.78473388 352.66247657 9.78473388 352.66247657 7.11695099 353.17559433 C4.93038872 353.87943408 2.94765554 354.65432135 0.89453125 355.6796875 C0.19497314 356.02257812 -0.50458496 356.36546875 -1.2253418 356.71875 C-1.955354 357.0796875 -2.68536621 357.440625 -3.4375 357.8125 C-17.06296877 364.3270825 -28.71812802 367.60465442 -43.75 362.875 C-50.25028229 360.51805334 -56.27387189 357.53102853 -62.32421875 354.1953125 C-65.53568342 352.81468283 -66.12040301 352.71366913 -69.25 353.9375 C-71.28209029 355.53826681 -71.28209029 355.53826681 -73.26597595 357.61962891 C-74.05517929 358.41048889 -74.84438263 359.20134888 -75.65750122 360.01617432 C-76.51423431 360.88997742 -77.37096741 361.76378052 -78.25366211 362.6640625 C-79.64956492 364.06915544 -81.04546909 365.47424703 -82.44142449 366.87928772 C-83.93995464 368.39044524 -85.43471894 369.90524062 -86.92851067 371.42108154 C-90.04261658 374.58052216 -93.16866532 377.72796037 -96.29676819 380.87353516 C-104.06445257 388.68829454 -111.81692414 396.51810002 -119.56500244 404.35229492 C-125.58679471 410.44076265 -131.61297802 416.52473382 -137.65314108 422.59498405 C-140.76310241 425.72145369 -143.86344192 428.85707093 -146.95687282 431.99989319 C-149.33559224 434.41151944 -151.72727443 436.81016194 -154.11694336 439.2109375 C-154.97165222 440.0847406 -155.82636108 440.9585437 -156.70697021 441.85882568 C-157.89500496 443.04511566 -157.89500496 443.04511566 -159.10704041 444.25537109 C-159.79042449 444.94633881 -160.47380857 445.63730652 -161.17790127 446.34921265 C-163.58028365 448.19066619 -165.25675906 448.65267275 -168.25 448.9375 C-170.81694532 448.13111186 -171.90105058 447.57716094 -173.19691467 445.20170593 C-173.40916183 444.49536514 -173.621409 443.78902435 -173.84008789 443.0612793 C-174.09422958 442.24174271 -174.34837128 441.42220612 -174.61021423 440.57783508 C-174.8741951 439.66914169 -175.13817596 438.7604483 -175.41015625 437.82421875 C-175.84908958 436.37978645 -175.84908958 436.37978645 -176.29689026 434.90617371 C-177.29866785 431.58823479 -178.27509601 428.26342934 -179.25 424.9375 C-179.80683043 423.06233291 -180.36367532 421.18717001 -180.92120934 419.31221199 C-183.13296553 411.86773316 -185.30740417 404.41268909 -187.46850586 396.95336914 C-188.49823902 393.39932283 -189.53433406 389.84716386 -190.5719595 386.29541492 C-191.3785666 383.53135161 -192.1814779 380.76622531 -192.98329353 378.00076866 C-193.3644069 376.68827818 -193.74676998 375.37614988 -194.13043022 374.06440163 C-194.66036657 372.25083717 -195.18469212 370.43563601 -195.70874023 368.62036133 C-196.15672218 367.07775383 -196.15672218 367.07775383 -196.61375427 365.50398254 C-197.25 362.9375 -197.25 362.9375 -197.25 359.9375 C-199.19048218 359.59525391 -199.19048218 359.59525391 -201.17016602 359.24609375 C-209.08551082 357.65804915 -216.78969123 355.27735833 -224.52734375 353 C-226.18731711 352.51417904 -227.84735754 352.02858722 -229.50746155 351.54321289 C-232.96683315 350.53067036 -236.42525909 349.51497466 -239.88305664 348.49707031 C-244.31526467 347.19266178 -248.74994061 345.89687455 -253.18537045 344.60346985 C-256.60503605 343.60513534 -260.02327294 342.60198036 -263.44110298 341.59738159 C-265.07652622 341.11737994 -266.71241312 340.63895505 -268.34876823 340.16213989 C-270.62845041 339.49715162 -272.90610503 338.82562469 -275.18334961 338.15234375 C-276.19556328 337.85926834 -276.19556328 337.85926834 -277.22822571 337.56027222 C-280.30876673 336.64231227 -282.54576183 335.74032545 -285.25 333.9375 C-286.05084497 329.76950386 -286.25586359 327.42213067 -283.84266281 323.86030388 C-281.73103948 321.55202619 -279.52052054 319.41414449 -277.23193359 317.28100586 C-276.38016037 316.4553714 -275.52838715 315.62973694 -274.65080261 314.77908325 C-272.31859371 312.52319247 -269.97022245 310.2856653 -267.61630583 308.05249095 C-265.1524455 305.70230254 -262.71801348 303.32213571 -260.28237915 300.94276428 C-251.98783994 292.85027531 -243.64930361 284.80423039 -235.26953125 276.80004883 C-230.63743207 272.37495143 -226.036899 267.9193585 -221.46769011 263.42933184 C-219.05138588 261.05791436 -216.62148404 258.70555906 -214.15058517 256.39097404 C-203.0723673 247.1120105 -203.0723673 247.1120105 -197.46563721 234.55447388 C-197.6970234 230.74698318 -198.78575583 227.4594969 -200.25 223.9375 C-200.62119965 222.89162216 -200.99239929 221.84574432 -201.37484741 220.76817322 C-202.7524635 217.04136294 -204.48523386 213.51773288 -206.21484375 209.94384766 C-213.82250147 194.19384307 -219.72477291 180.46941047 -213.86328125 162.90625 C-211.37853922 156.48119687 -208.22437004 150.30984619 -205.13549805 144.15893555 C-199.63677764 133.09647131 -198.6198091 122.72437118 -197.72363281 110.57250977 C-196.70337162 97.00206112 -194.07781387 84.43861045 -183.91015625 74.6953125 C-178.93991067 70.47680744 -173.70219568 66.88297003 -168.1875 63.4375 C-158.12538627 57.13314675 -150.66196624 49.96534675 -144.25 39.9375 C-134.89652431 25.53463803 -126.79090246 14.74803677 -109.25 10.9375 C-103.30372543 10.21354602 -97.33049393 9.80692366 -91.35327148 9.43164062 C-77.77046475 8.549038 -66.80444075 4.37162119 -54.6875 -1.6875 C-34.26900313 -11.59668584 -20.22688193 -9.86533085 0 0 Z " fill="#342E3D" transform="translate(285.25,36.0625)"/>
<path d="M0 0 C11.72552666 5.68039627 20.47225927 8.09634043 33.4375 8.875 C49.13041572 9.97909001 62.67350354 11.26398845 74.125 23.1875 C78.68838132 28.51009874 82.49487026 34.33657292 86.23779297 40.25292969 C92.48099393 49.99600952 99.30340283 56.82199902 109.125 62.9375 C123.06328227 71.94172714 133.944112 80.08131236 137.75 96.9375 C138.52503597 102.76889469 138.95849982 108.62438704 139.40673828 114.48779297 C140.59158506 129.62267058 144.90260356 140.84571192 151.45507812 154.48046875 C157.79742532 167.88641894 159.80888821 179.27766381 155.36328125 193.74609375 C152.98839415 200.30444842 149.77157467 206.54660916 146.63549805 212.7668457 C143.93854164 218.16306953 141.84845933 222.99637052 140.75 228.9375 C140.56431017 229.68162392 140.37862034 230.42574783 140.18730354 231.19242096 C139.45179445 235.0084658 139.078503 237.7454286 141.03167343 241.21278381 C143.07327848 243.60905093 145.23150817 245.76839331 147.51513672 247.93554688 C148.35219147 248.77260162 149.18924622 249.60965637 150.05166626 250.47207642 C152.34258636 252.75244977 154.65593229 255.00663094 156.98157644 257.2514782 C159.41143707 259.60861764 161.80958514 261.99758421 164.21121216 264.38342285 C168.76075281 268.89367409 173.33715936 273.37558236 177.92434227 277.84750986 C183.65339431 283.43509212 189.34870795 289.05668957 195.04296875 294.6796875 C197.03419996 296.64578575 199.02562989 298.61168223 201.0173645 300.57727051 C201.49950853 301.05310467 201.98165257 301.52893884 202.47840703 302.01919222 C205.81077166 305.30596784 209.15287803 308.58256912 212.49899292 311.85534668 C213.38337036 312.72166718 214.2677478 313.58798767 215.17892456 314.4805603 C216.83611975 316.10320784 218.49530822 317.72382301 220.15679932 319.34207153 C220.88323639 320.05398651 221.60967346 320.76590149 222.35812378 321.49938965 C222.99269438 322.11875145 223.62726498 322.73811325 224.28106499 323.37624359 C226.39738395 325.62557151 226.73412364 326.7509528 227 329.875 C226.75 332.9375 226.75 332.9375 225.72314453 334.46992493 C222.76238162 336.67206561 219.43137517 337.48544659 215.9296875 338.48120117 C215.13427551 338.71572495 214.33886353 338.95024872 213.51934814 339.19187927 C210.89058168 339.96427132 208.25797387 340.72255486 205.625 341.48046875 C203.79779915 342.01352995 201.97081615 342.54733844 200.14404297 343.0818634 C196.31584524 344.19982654 192.48584016 345.31128299 188.65429688 346.41772461 C183.73852539 347.83742694 178.82637223 349.2691832 173.91537476 350.70530224 C170.14349037 351.80760979 166.3703458 352.90554628 162.59674072 354.0019474 C160.78475312 354.52856658 158.97302507 355.05607964 157.16156006 355.58449364 C154.63232324 356.32113955 152.10158771 357.05237636 149.5703125 357.78198242 C148.8190509 358.00168701 148.06778931 358.2213916 147.29376221 358.44775391 C144.34547885 359.29239899 141.83408416 359.9375 138.75 359.9375 C138.40775391 361.87798218 138.40775391 361.87798218 138.05859375 363.85766602 C136.47054915 371.77301082 134.08985833 379.47719123 131.8125 387.21484375 C131.32667904 388.87481711 130.84108722 390.53485754 130.35571289 392.19496155 C129.34317036 395.65433315 128.32747466 399.11275909 127.30957031 402.57055664 C126.00516178 407.00276467 124.70937455 411.43744061 123.41596985 415.87287045 C122.41763534 419.29253605 121.41448036 422.71077294 120.40988159 426.12860298 C119.92987994 427.76402622 119.45145505 429.39991312 118.97463989 431.03626823 C118.30965162 433.31595041 117.63812469 435.59360503 116.96484375 437.87084961 C116.67176834 438.88306328 116.67176834 438.88306328 116.37277222 439.91572571 C115.45481227 442.99626673 114.55282545 445.23326183 112.75 447.9375 C110.4375 448.8125 110.4375 448.8125 107.75 448.9375 C104.17205103 447.085268 101.46940305 444.89728044 98.6517334 442.03936768 C97.86956955 441.2512822 97.0874057 440.46319672 96.28153992 439.65122986 C95.43775284 438.79082596 94.59396576 437.93042206 93.72460938 437.04394531 C92.34351152 435.64850249 90.96240959 434.25306368 89.58115387 432.85777712 C88.10261184 431.36246634 86.62651241 429.86477964 85.1509552 428.36652374 C82.07316226 425.24250332 78.98552883 422.12833621 75.89587402 419.01605225 C67.113462 410.16684724 58.33953939 401.30934524 49.58642578 392.43115234 C44.74776754 387.52351757 39.89852055 382.62661135 35.03715563 377.74146533 C31.96138242 374.64947545 28.89922539 371.54478426 25.84632111 368.43022108 C23.50143494 366.04588424 21.13701494 363.68123321 18.77539062 361.31347656 C17.50971001 360.01072533 17.50971001 360.01072533 16.21846008 358.68165588 C15.43629623 357.9048497 14.65413239 357.12804352 13.8482666 356.32769775 C13.17355568 355.64485844 12.49884476 354.96201912 11.80368805 354.2584877 C9.78473388 352.66247657 9.78473388 352.66247657 7.11695099 353.17559433 C4.93038872 353.87943408 2.94765554 354.65432135 0.89453125 355.6796875 C0.19497314 356.02257812 -0.50458496 356.36546875 -1.2253418 356.71875 C-1.955354 357.0796875 -2.68536621 357.440625 -3.4375 357.8125 C-17.06296877 364.3270825 -28.71812802 367.60465442 -43.75 362.875 C-50.25028229 360.51805334 -56.27387189 357.53102853 -62.32421875 354.1953125 C-65.53568342 352.81468283 -66.12040301 352.71366913 -69.25 353.9375 C-71.28209029 355.53826681 -71.28209029 355.53826681 -73.26597595 357.61962891 C-74.05517929 358.41048889 -74.84438263 359.20134888 -75.65750122 360.01617432 C-76.51423431 360.88997742 -77.37096741 361.76378052 -78.25366211 362.6640625 C-79.64956492 364.06915544 -81.04546909 365.47424703 -82.44142449 366.87928772 C-83.93995464 368.39044524 -85.43471894 369.90524062 -86.92851067 371.42108154 C-90.04261658 374.58052216 -93.16866532 377.72796037 -96.29676819 380.87353516 C-104.06445257 388.68829454 -111.81692414 396.51810002 -119.56500244 404.35229492 C-125.58679471 410.44076265 -131.61297802 416.52473382 -137.65314108 422.59498405 C-140.76310241 425.72145369 -143.86344192 428.85707093 -146.95687282 431.99989319 C-149.33559224 434.41151944 -151.72727443 436.81016194 -154.11694336 439.2109375 C-154.97165222 440.0847406 -155.82636108 440.9585437 -156.70697021 441.85882568 C-157.89500496 443.04511566 -157.89500496 443.04511566 -159.10704041 444.25537109 C-159.79042449 444.94633881 -160.47380857 445.63730652 -161.17790127 446.34921265 C-163.58028365 448.19066619 -165.25675906 448.65267275 -168.25 448.9375 C-170.81694532 448.13111186 -171.90105058 447.57716094 -173.19691467 445.20170593 C-173.40916183 444.49536514 -173.621409 443.78902435 -173.84008789 443.0612793 C-174.09422958 442.24174271 -174.34837128 441.42220612 -174.61021423 440.57783508 C-174.8741951 439.66914169 -175.13817596 438.7604483 -175.41015625 437.82421875 C-175.84908958 436.37978645 -175.84908958 436.37978645 -176.29689026 434.90617371 C-177.29866785 431.58823479 -178.27509601 428.26342934 -179.25 424.9375 C-179.80683043 423.06233291 -180.36367532 421.18717001 -180.92120934 419.31221199 C-183.13296553 411.86773316 -185.30740417 404.41268909 -187.46850586 396.95336914 C-188.49823902 393.39932283 -189.53433406 389.84716386 -190.5719595 386.29541492 C-191.3785666 383.53135161 -192.1814779 380.76622531 -192.98329353 378.00076866 C-193.3644069 376.68827818 -193.74676998 375.37614988 -194.13043022 374.06440163 C-194.66036657 372.25083717 -195.18469212 370.43563601 -195.70874023 368.62036133 C-196.15672218 367.07775383 -196.15672218 367.07775383 -196.61375427 365.50398254 C-197.25 362.9375 -197.25 362.9375 -197.25 359.9375 C-199.19048218 359.59525391 -199.19048218 359.59525391 -201.17016602 359.24609375 C-209.08551082 357.65804915 -216.78969123 355.27735833 -224.52734375 353 C-226.18731711 352.51417904 -227.84735754 352.02858722 -229.50746155 351.54321289 C-232.96683315 350.53067036 -236.42525909 349.51497466 -239.88305664 348.49707031 C-244.31526467 347.19266178 -248.74994061 345.89687455 -253.18537045 344.60346985 C-256.60503605 343.60513534 -260.02327294 342.60198036 -263.44110298 341.59738159 C-265.07652622 341.11737994 -266.71241312 340.63895505 -268.34876823 340.16213989 C-270.62845041 339.49715162 -272.90610503 338.82562469 -275.18334961 338.15234375 C-276.19556328 337.85926834 -276.19556328 337.85926834 -277.22822571 337.56027222 C-280.30876673 336.64231227 -282.54576183 335.74032545 -285.25 333.9375 C-286.05084497 329.76950386 -286.25586359 327.42213067 -283.84266281 323.86030388 C-281.73103948 321.55202619 -279.52052054 319.41414449 -277.23193359 317.28100586 C-276.38016037 316.4553714 -275.52838715 315.62973694 -274.65080261 314.77908325 C-272.31859371 312.52319247 -269.97022245 310.2856653 -267.61630583 308.05249095 C-265.1524455 305.70230254 -262.71801348 303.32213571 -260.28237915 300.94276428 C-251.98783994 292.85027531 -243.64930361 284.80423039 -235.26953125 276.80004883 C-230.63743207 272.37495143 -226.036899 267.9193585 -221.46769011 263.42933184 C-219.05138588 261.05791436 -216.62148404 258.70555906 -214.15058517 256.39097404 C-203.0723673 247.1120105 -203.0723673 247.1120105 -197.46563721 234.55447388 C-197.6970234 230.74698318 -198.78575583 227.4594969 -200.25 223.9375 C-200.62119965 222.89162216 -200.99239929 221.84574432 -201.37484741 220.76817322 C-202.7524635 217.04136294 -204.48523386 213.51773288 -206.21484375 209.94384766 C-213.82250147 194.19384307 -219.72477291 180.46941047 -213.86328125 162.90625 C-211.37853922 156.48119687 -208.22437004 150.30984619 -205.13549805 144.15893555 C-199.63677764 133.09647131 -198.6198091 122.72437118 -197.72363281 110.57250977 C-196.70337162 97.00206112 -194.07781387 84.43861045 -183.91015625 74.6953125 C-178.93991067 70.47680744 -173.70219568 66.88297003 -168.1875 63.4375 C-158.12538627 57.13314675 -150.66196624 49.96534675 -144.25 39.9375 C-134.89652431 25.53463803 -126.79090246 14.74803677 -109.25 10.9375 C-103.30372543 10.21354602 -97.33049393 9.80692366 -91.35327148 9.43164062 C-77.77046475 8.549038 -66.80444075 4.37162119 -54.6875 -1.6875 C-34.26900313 -11.59668584 -20.22688193 -9.86533085 0 0 Z M-58.30664062 12.265625 C-69.35877491 17.72184594 -80.27045621 19.89595423 -92.5 20.375 C-104.29270054 20.95504245 -115.12542975 21.67581737 -123.89916992 30.6184082 C-128.20401822 35.38484863 -131.73675711 40.47263576 -135.1875 45.875 C-142.69062155 57.28846016 -150.26247022 65.03197631 -161.46728516 72.70996094 C-176.29464776 82.81948506 -176.29464776 82.81948506 -185.25 97.9375 C-185.85829558 101.57863743 -185.85829558 101.57863743 -186.05859375 105.3828125 C-186.16724227 106.80469327 -186.27596878 108.22656807 -186.38476562 109.6484375 C-186.53801616 111.84608423 -186.68627838 114.04398284 -186.83129883 116.2421875 C-187.82238551 130.81099743 -191.32779051 142.823136 -197.9375 155.9375 C-198.92578468 157.91406936 -199.90906061 159.89315298 -200.88671875 161.875 C-201.31686279 162.72964844 -201.74700684 163.58429688 -202.19018555 164.46484375 C-205.58970101 172.39626339 -205.93749543 182.82814769 -202.93359375 190.94921875 C-201.51280913 194.34315384 -199.91545638 197.6443409 -198.25976562 200.92919922 C-196.90933734 203.61503651 -195.62694837 206.33049949 -194.35180664 209.05273438 C-193.49088555 210.8863009 -192.61127585 212.71105916 -191.73046875 214.53515625 C-187.86527619 223.41796025 -187.63304999 232.07504069 -187.12695312 241.62695312 C-186.29667459 254.94880954 -184.44336631 265.6502107 -174.25 274.9375 C-169.48704525 278.91642928 -164.52272658 282.44393448 -159.3125 285.8125 C-148.08002663 293.2723429 -140.65349112 301.88244003 -133.25 312.9375 C-126.02708228 323.71996649 -120.20863157 331.47517641 -107.25 334.9375 C-103.0265314 335.54123641 -98.82232967 335.75231749 -94.5625 335.9375 C-74.64241548 337.22509941 -59.6407389 343.08198726 -41.72338867 351.78588867 C-34.66746616 355.07113065 -27.16056008 355.0733833 -19.7265625 352.9140625 C-14.17974087 350.73624316 -8.84002047 348.23822541 -3.49609375 345.60546875 C5.27638293 341.29110739 12.8759004 337.69975234 22.75 336.9375 C24.34668392 336.78332557 25.94301161 336.62543902 27.5390625 336.46484375 C30.17575998 336.20075481 32.81246508 335.93750339 35.44995117 335.68139648 C49.22201157 334.33232339 59.3350559 332.69621783 68.75 321.9375 C72.01455737 317.48849201 74.97633848 312.84146519 77.96875 308.20703125 C84.59423487 298.18563886 92.11612626 290.92433876 102.1875 284.4375 C114.36820022 276.3174278 124.09226076 269.53602568 127.30810547 254.61816406 C127.9820167 250.53001751 128.1676181 246.44206143 128.38134766 242.30786133 C129.26413594 225.27433053 133.22577485 212.59804942 140.9453125 197.51171875 C145.64675218 188.25980305 148.21084883 178.22195954 145.14648438 167.90576172 C143.60653678 163.76043768 141.70234368 159.80528384 139.71240234 155.85986328 C138.20958812 152.85804714 136.83179846 149.80368576 135.4375 146.75 C134.73173828 145.24373047 134.73173828 145.24373047 134.01171875 143.70703125 C131.72999243 138.69853601 130.39710288 134.50615218 129.75 129 C129.66661377 128.32050293 129.58322754 127.64100586 129.49731445 126.94091797 C129.00248535 122.74816242 128.63993117 118.5598606 128.35546875 114.34765625 C127.30556968 99.30969515 125.25244528 90.28697329 113.75 79.9375 C110.71778412 77.64196837 107.56554744 75.56757245 104.375 73.5 C91.8003952 65.0729954 83.17422064 56.37948023 74.75 43.9375 C68.64676057 35.04068223 62.88186167 27.32381471 52.75 22.9375 C49.93978392 22.50751389 47.27248147 22.2048183 44.44921875 22.015625 C42.8143798 21.87585498 41.17961635 21.73519963 39.54492188 21.59375 C37.00997795 21.38786623 34.47512135 21.19017543 31.93823242 21.00976562 C19.3385144 20.08665482 9.13870371 17.39082788 -2.25 11.9375 C-3.66333618 11.29264648 -3.66333618 11.29264648 -5.10522461 10.63476562 C-7.272535 9.63826024 -9.42016049 8.61137583 -11.5625 7.5625 C-17.511965 4.6616569 -22.21780471 2.79289095 -28.875 2.6875 C-29.83664063 2.66171875 -30.79828125 2.6359375 -31.7890625 2.609375 C-41.44819566 3.52513932 -49.77872618 7.94125377 -58.30664062 12.265625 Z " fill="#322E3D" transform="translate(285.25,36.0625)"/>
<path d="M0 0 C0.87213135 0.42490723 1.7442627 0.84981445 2.64282227 1.28759766 C3.42117432 1.67061035 4.19952637 2.05362305 5.00146484 2.44824219 C10.70004542 4.98005564 15.86930436 5.9346086 22.01782227 6.42431641 C23.68911834 6.57652134 25.36034031 6.72954186 27.03149414 6.88330078 C29.63741069 7.11570514 32.24337984 7.34188668 34.85107422 7.5534668 C47.52410778 8.59845517 56.73423817 9.91759093 65.79614258 19.56640625 C68.76886986 23.12606569 71.28160993 26.96126704 73.81079102 30.84228516 C81.80581823 42.74093419 89.89965397 51.34652866 101.71655273 59.36132812 C121.92367272 73.09482376 121.92367272 73.09482376 125.43579102 84.52978516 C126.2762519 89.86452285 126.6819168 95.20799362 127.06079102 100.59228516 C128.39127332 118.29130655 133.12152958 131.87258962 140.7565918 147.83032227 C145.10379264 156.93457881 146.37210448 167.02639715 142.99829102 176.77978516 C140.49857205 182.7773123 137.59232336 188.63779772 134.69775391 194.45458984 C129.74214059 204.57154919 127.98994963 213.67047873 127.43579102 224.90478516 C126.73824821 238.95076075 125.68198957 250.72804399 115.12329102 260.77978516 C110.95497192 264.44938365 106.58323981 267.52028081 101.93579102 270.52978516 C89.87362764 278.35352424 81.36797754 287.44913582 73.56079102 299.46728516 C67.49348448 308.63852265 61.29493001 317.50348779 50.10351562 320.06323242 C41.57127618 321.62035198 33.0057841 322.48297956 24.37524414 323.29736328 C12.57794878 324.50854335 3.26900595 327.82834623 -7.31420898 333.09228516 C-28.19946696 343.40051737 -28.19946696 343.40051737 -39.46606445 339.94677734 C-43.58636807 338.37921411 -47.54560185 336.4723414 -51.50268555 334.53515625 C-67.38053243 326.79179132 -81.29784746 323.25720115 -99.01293945 322.4387207 C-110.44059125 321.78303576 -119.04233644 319.24544721 -126.96264648 310.77197266 C-130.78701638 306.19980449 -133.93347841 301.13373017 -137.17773438 296.14453125 C-144.69575074 284.62710851 -153.28471009 277.11280678 -164.56420898 269.52978516 C-175.49370075 262.07917671 -175.49370075 262.07917671 -179.56420898 257.52978516 C-180.61608398 256.38509766 -180.61608398 256.38509766 -181.68920898 255.21728516 C-185.81652143 249.30147066 -187.05112411 242.99548874 -187.68920898 235.96728516 C-187.81030029 234.79818604 -187.81030029 234.79818604 -187.93383789 233.60546875 C-188.3051699 229.88836726 -188.60215889 226.17979342 -188.76733398 222.44775391 C-189.47482731 206.83466252 -195.67708983 194.64485426 -202.48266602 180.8347168 C-204.87475468 175.73681406 -205.85913049 171.97521627 -205.87670898 166.27978516 C-205.8934668 165.03712891 -205.91022461 163.79447266 -205.92749023 162.51416016 C-205.43468609 153.15555252 -200.36610057 144.70912318 -196.23608398 136.52197266 C-190.18961221 124.21048193 -188.86541458 112.27480515 -188.05834961 98.77905273 C-187.32434091 86.92188685 -185.5497868 77.49953222 -176.46508789 69.10742188 C-173.1963974 66.3945683 -169.76713421 63.9724589 -166.25170898 61.59228516 C-164.74512895 60.54608062 -163.2399137 59.49790795 -161.73608398 58.44775391 C-160.65810547 57.69631104 -160.65810547 57.69631104 -159.55834961 56.9296875 C-148.79930147 49.3767514 -141.67144658 40.80601469 -134.50170898 29.90478516 C-127.83772463 19.83254164 -122.34060291 12.87082832 -110.56420898 8.52978516 C-106.01206257 7.65375226 -101.52332935 7.39776178 -96.90429688 7.23974609 C-81.27526418 6.68706818 -68.31170381 3.17126014 -54.21264648 -3.53662109 C-53.07533081 -4.076698 -53.07533081 -4.076698 -51.91503906 -4.62768555 C-50.41929297 -5.34180736 -48.92676922 -6.06272859 -47.43798828 -6.79125977 C-30.18908622 -15.10823475 -15.8810853 -7.76371041 0 0 Z M-125.56420898 68.52978516 C-126.73016602 69.60292969 -126.73016602 69.60292969 -127.91967773 70.69775391 C-150.4171256 91.92101004 -164.41127371 124.08588013 -165.70336914 154.84228516 C-166.12610526 170.16907246 -166.14667946 184.77799663 -161.56420898 199.52978516 C-161.34990234 200.26551758 -161.1355957 201.00125 -160.91479492 201.75927734 C-150.51213401 237.32820091 -127.2173858 266.10746155 -94.94702148 284.20947266 C-66.94803686 299.34506568 -30.4955417 305.51100836 0.43579102 296.52978516 C1.8376935 296.1609165 3.24006565 295.79382972 4.64282227 295.42822266 C13.68881787 292.99623381 22.10196962 289.85866058 30.43579102 285.52978516 C31.07403809 285.19962402 31.71228516 284.86946289 32.36987305 284.52929688 C41.56012855 279.72394891 49.6757738 274.47477098 57.43579102 267.52978516 C58.41032227 266.69833984 59.38485352 265.86689453 60.38891602 265.01025391 C81.91324382 246.36321414 94.09806467 221.6107464 101.43579102 194.52978516 C101.6257666 193.86188965 101.81574219 193.19399414 102.01147461 192.50585938 C110.29772877 162.02619086 102.82743092 126.96770584 88.43579102 99.52978516 C70.41817051 68.16850953 41.5054822 44.15756253 6.43579102 34.52978516 C4.90438477 34.09085938 4.90438477 34.09085938 3.34204102 33.64306641 C-43.05987967 21.12675885 -91.55270806 35.30581537 -125.56420898 68.52978516 Z " fill="#FDD859" transform="translate(286.564208984375,49.47021484375)"/>
<path d="M0 0 C12.54 0 25.08 0 38 0 C38 39.27 38 78.54 38 119 C11.18812509 119 -17.12009762 109.75036247 -37 91 C-37 86.85343054 -35.29521293 85.76128212 -32.5625 82.6875 C-19.4214814 67.37773424 -10.62128303 49.77207628 -5.0625 30.4375 C-4.78003418 29.47030029 -4.49756836 28.50310059 -4.20654297 27.5065918 C-1.70016266 18.22868187 -1.095796 9.862164 0 0 Z " fill="#F86E4B" transform="translate(213,219)"/>
<path d="M0 0 C12.54 0 25.08 0 38 0 C38.66 5.94 39.32 11.88 40 18 C44.71215857 42.2857403 54.6123716 62.73981845 70 82 C72.01755323 84.65404324 74.00807849 87.32663166 76 90 C55.08798709 109.06954481 28.10482095 119 0 119 C0 79.73 0 40.46 0 0 Z " fill="#F86E4B" transform="translate(261,219)"/>
<path d="M0 0 C19.73766266 1.16103898 19.73766266 1.16103898 27.5625 3.625 C28.43890137 3.88933838 29.31530273 4.15367676 30.21826172 4.42602539 C47.43803675 9.7874307 61.56711445 18.2521065 76 29 C74.42246777 32.66947714 72.13219114 35.26796067 69.5 38.25 C56.66306339 53.28245003 47.72472634 70.83615673 43 90 C42.72414063 91.05703125 42.44828125 92.1140625 42.1640625 93.203125 C40.01155407 101.85578265 39.12497963 110.00016294 38 119 C25.46 119 12.92 119 0 119 C0 79.73 0 40.46 0 0 Z " fill="#F96F4B" transform="translate(261,90)"/>
<path d="M0 0 C0 39.27 0 78.54 0 119 C-12.54 119 -25.08 119 -38 119 C-38.3403125 114.8853125 -38.3403125 114.8853125 -38.6875 110.6875 C-41.36434672 83.72499066 -52.40846107 53.11142324 -72.83203125 34.40625 C-75 32 -75 32 -75.109375 29.94140625 C-68.00704721 17.51233261 -45.11798126 8.76116583 -32.125 5 C-29.42913499 4.2720308 -26.72255919 3.61985059 -24 3 C-22.99018066 2.76095947 -22.99018066 2.76095947 -21.95996094 2.51708984 C-14.44278054 0.76163478 -7.84745826 0 0 0 Z " fill="#F96F4B" transform="translate(251,90)"/>
<path d="M0 0 C13.66578364 5.95996731 22.79016778 26.9298578 28.24609375 40.07617188 C33.56835702 53.65759498 36 66.28205136 36 81 C12.9 81 -10.2 81 -34 81 C-32.83634331 60.05417959 -32.83634331 60.05417959 -30.4375 52.4375 C-30.17501465 51.56746338 -29.9125293 50.69742676 -29.64208984 49.80102539 C-23.78468307 31.16984848 -13.87210472 13.87210472 0 0 Z " fill="#FE6F4A" transform="translate(166,128)"/>
<path d="M0 0 C12.6483029 5.00722289 21.56720179 25.28417249 26.8125 37 C32.83169198 51.00456271 36 65.762191 36 81 C12.9 81 -10.2 81 -34 81 C-34 73.47805512 -33.39433624 67.26625927 -32 60 C-31.87882812 59.27296875 -31.75765625 58.5459375 -31.6328125 57.796875 C-27.52461 35.83056774 -14.95532889 16.10879841 0 0 Z " fill="#FE6F4B" transform="translate(344,128)"/>
<path d="M0 0 C23.1 0 46.2 0 70 0 C70 27.2697773 59.65413278 51.44695438 43.1875 72.8125 C42.73141357 73.40595215 42.27532715 73.9994043 41.80541992 74.61083984 C39.48077351 77.52103843 37.54517308 79.70258235 34 81 C23.60879505 69.32899591 15.61538255 57.24089836 9 43 C8.63132813 42.22785156 8.26265625 41.45570313 7.8828125 40.66015625 C4.54246144 33.08610442 3.02407347 24.97873935 1.39306641 16.89990234 C1.09365511 15.45268577 0.75005211 14.01453668 0.38671875 12.58203125 C-0.23479547 8.4323252 0 4.19599097 0 0 Z " fill="#FE6F4A" transform="translate(132,220)"/>
<path d="M0 0 C23.1 0 46.2 0 70 0 C70 7.76874504 69.62106137 13.64011716 68 21 C67.78142334 21.99676758 67.56284668 22.99353516 67.33764648 24.02050781 C65.08622644 33.62758947 61.46264489 42.23540217 57 51 C56.4946875 52.03382813 55.989375 53.06765625 55.46875 54.1328125 C50.39079366 64.03482737 43.35546026 72.70153201 36 81 C25.3385347 77.20137816 16.80299986 59.858822 12.00830078 50.17138672 C6.9438314 39.26499672 3.17467496 27.82688611 1 16 C0.81179688 15.09894531 0.62359375 14.19789063 0.4296875 13.26953125 C-0.14696032 8.8817656 0 4.42549546 0 0 Z " fill="#FE6F4A" transform="translate(310,220)"/>
<path d="M0 0 C2.34797668 1.926651 2.34797668 1.926651 4.96801758 4.48461914 C5.44813293 4.94983978 5.92824829 5.41506042 6.4229126 5.89437866 C8.0052163 7.43294078 9.57567333 8.98289246 11.14453125 10.53515625 C12.2397968 11.61315942 13.33506767 12.69115719 14.43034363 13.76914978 C16.72331764 16.03063055 19.00924214 18.29900252 21.29174805 20.57104492 C24.21519088 23.47802395 27.1654068 26.35613116 30.12296009 29.2283411 C32.39518886 31.44464557 34.64698996 33.6808731 36.893713 35.92300224 C37.97277268 36.99299293 39.05931955 38.05548827 40.15339088 39.11012459 C48.69306128 47.3635494 48.69306128 47.3635494 49.44654846 51.38078308 C49.20263672 53.52246094 49.20263672 53.52246094 48 57 C47.74863281 58.02480469 47.49726563 59.04960937 47.23828125 60.10546875 C46.93277344 61.12253906 46.62726563 62.13960938 46.3125 63.1875 C45.78849609 64.96060547 45.78849609 64.96060547 45.25390625 66.76953125 C45.05812988 67.42646973 44.86235352 68.0834082 44.66064453 68.76025391 C43.32478378 73.28914768 42.04307314 77.83374551 40.75 82.375 C40.22414465 84.21619906 39.69811786 86.05734916 39.171875 87.8984375 C38.8330127 89.08445557 38.8330127 89.08445557 38.48730469 90.29443359 C38.32649414 90.85727051 38.16568359 91.42010742 38 92 C34.90739351 90.62242513 32.79354263 89.04294496 30.40594482 86.65318298 C29.71048553 85.96191818 29.01502625 85.27065338 28.29849243 84.55844116 C27.54611298 83.8004422 26.79373352 83.04244324 26.01855469 82.26147461 C25.2181778 81.46299606 24.4178009 80.66451752 23.59317017 79.84184265 C20.94782651 77.20020515 18.30975385 74.55143386 15.671875 71.90234375 C13.8394962 70.06877321 12.00674799 68.23557177 10.17364502 66.40272522 C6.33401103 62.56152677 2.49764266 58.71711241 -1.3359375 54.86987305 C-5.77357831 50.4164797 -10.21645148 45.96836197 -14.66234136 41.52320474 C-18.93627749 37.24987789 -23.20729886 32.97365397 -27.47682953 28.69592476 C-29.29600337 26.87355767 -31.1157933 25.05180539 -32.93619537 23.23066521 C-35.4720411 20.69266454 -38.00457403 18.15140665 -40.53613281 15.60913086 C-41.29660919 14.84910767 -42.05708557 14.08908447 -42.84060669 13.30603027 C-43.52478668 12.6175853 -44.20896667 11.92914032 -44.91387939 11.21983337 C-45.51338032 10.61865661 -46.11288124 10.01747984 -46.73054886 9.39808559 C-48 8 -48 8 -48 7 C-47.32122803 6.96036133 -46.64245605 6.92072266 -45.94311523 6.87988281 C-25.26775643 6.22171955 -25.26775643 6.22171955 -5.86328125 -0.1875 C-3.37283462 -1.27348092 -2.53728349 -0.96108287 0 0 Z " fill="#FC414C" transform="translate(354,376)"/>
<path d="M0 0 C6 2 6 2 8.19140625 2.765625 C8.95324219 3.02859375 9.71507812 3.2915625 10.5 3.5625 C11.56734375 3.93568359 11.56734375 3.93568359 12.65625 4.31640625 C19.55099089 6.32737234 26.62124964 6.32532591 33.74414062 6.60546875 C37.92325438 6.78730566 41.92115729 6.9824093 46 8 C41.62034156 13.23561003 37.01719102 18.13117694 32.19042969 22.95483398 C31.43198761 23.71663467 30.67354553 24.47843536 29.89212036 25.26332092 C27.40466544 27.76021387 24.91351374 30.25337626 22.421875 32.74609375 C20.68638871 34.48479481 18.95097722 36.22357054 17.21563721 37.9624176 C13.58954462 41.5944815 9.96140751 45.22448898 6.33203125 48.85327148 C1.67055924 53.51464134 -2.98396641 58.1828823 -7.63679886 62.8528738 C-11.21232361 66.43947952 -14.79234592 70.02156916 -18.37368011 73.60237312 C-20.09296817 75.32284477 -21.81062681 77.04494625 -23.52664948 78.76867485 C-25.91574627 81.16750364 -28.31101608 83.55999152 -30.70800781 85.95092773 C-31.4207486 86.66928802 -32.13348938 87.38764832 -32.86782837 88.1277771 C-33.51821075 88.773965 -34.16859314 89.42015289 -34.83868408 90.08592224 C-35.40424641 90.65202933 -35.96980873 91.21813643 -36.55250931 91.80139828 C-38 93 -38 93 -40 93 C-40.15557373 92.45287354 -40.31114746 91.90574707 -40.47143555 91.34204102 C-40.9407194 89.69274506 -41.41049207 88.04358816 -41.88061523 86.39453125 C-42.42177333 84.4951564 -42.96163464 82.59541163 -43.50024414 80.6953125 C-44.80360463 76.1137563 -46.12746058 71.54317133 -47.546875 66.99609375 C-47.78188721 66.23417725 -48.01689941 65.47226074 -48.2590332 64.68725586 C-48.70116496 63.26190197 -49.15239818 61.83932962 -49.61401367 60.42016602 C-50.82295686 56.49367968 -51.26693042 53.91412688 -50 50 C-47.97802734 47.53979492 -47.97802734 47.53979492 -45.3359375 44.98046875 C-44.86564117 44.51820389 -44.39534485 44.05593903 -43.91079712 43.57966614 C-42.40806523 42.1058216 -40.89239181 40.64623349 -39.375 39.1875 C-30.66130773 30.72511784 -30.66130773 30.72511784 -22.49804688 21.73608398 C-16.75592068 15.08154367 -10.24717241 9.02722145 -3.55859375 3.33984375 C-2.32496821 2.27935864 -1.15031749 1.15031749 0 0 Z " fill="#FD414C" transform="translate(160,375)"/>
<path d="M0 0 C0.14695312 0.90621094 0.29390625 1.81242187 0.4453125 2.74609375 C2.6754435 14.85801211 7.16856105 21.71296482 16 30 C17.33542071 31.33124268 18.66898602 32.66435134 20 34 C13.55656031 40.90805004 7.05957512 47.7597523 0.48912048 54.54712296 C-2.56078409 57.70117667 -5.58946626 60.87090357 -8.57617188 64.08496094 C-11.46286597 67.18995086 -14.39666546 70.24252431 -17.36849976 73.26604462 C-18.48991514 74.42425363 -19.59365407 75.59986588 -20.6781311 76.79273224 C-28.95225347 85.85888024 -28.95225347 85.85888024 -34.01263809 86.09319115 C-38.95594752 85.51939913 -43.38880597 83.79963817 -48 82 C-50.24094774 81.34849074 -52.48741543 80.71520651 -54.7421875 80.11328125 C-56.78739636 79.51622469 -58.83169079 78.91602569 -60.875 78.3125 C-61.93074219 78.00505859 -62.98648438 77.69761719 -64.07421875 77.38085938 C-71.72889169 75.13555415 -71.72889169 75.13555415 -74 74 C-72.70167721 71.14295152 -71.32947093 69.07876583 -69.11547852 66.86151123 C-68.52662872 66.26702179 -67.93777893 65.67253235 -67.33108521 65.06002808 C-66.68686615 64.41985748 -66.04264709 63.77968689 -65.37890625 63.12011719 C-64.69907684 62.43678314 -64.01924744 61.7534491 -63.31881714 61.04940796 C-61.0717155 58.79350769 -58.81738177 56.54499672 -56.5625 54.296875 C-55.00043931 52.73346744 -53.43867565 51.16976307 -51.87719727 49.60577393 C-48.60529505 46.33092324 -45.32980228 43.05971771 -42.05175781 39.79101562 C-37.84133195 35.59200289 -33.63997221 31.38405143 -29.4412384 27.17335129 C-26.21934087 23.94424384 -22.99271614 20.71989404 -19.76461792 17.49698639 C-18.21293112 15.94663751 -16.66273897 14.39479126 -15.11404419 12.84145355 C-12.95451655 10.67687295 -10.78872728 8.51876369 -8.62109375 6.36230469 C-7.65476517 5.38990341 -7.65476517 5.38990341 -6.66891479 4.39785767 C-2.2285298 0 -2.2285298 0 0 0 Z " fill="#FD414C" transform="translate(90,290)"/>
<path d="M0 0 C2.83721464 1.29134315 4.89788706 2.64720777 7.1005249 4.84655762 C7.68660019 5.42699326 8.27267548 6.00742889 8.87651062 6.60545349 C9.50733047 7.24032181 10.13815033 7.87519012 10.78808594 8.52929688 C11.46166641 9.19937271 12.13524689 9.86944855 12.82923889 10.55982971 C15.05267354 12.77446651 17.26871866 14.9963333 19.484375 17.21875 C21.02536232 18.75839043 22.56664646 20.29773384 24.10821533 21.83679199 C27.33598766 25.06161596 30.56011472 28.2900298 33.78173828 31.52099609 C37.92021704 35.67088825 42.06763399 39.81171297 46.21780014 43.94991302 C49.40058456 47.12548746 52.57861102 50.30578894 55.75519562 53.48756409 C57.28321582 55.01692218 58.81273332 56.54478573 60.34374237 58.07115173 C62.47719057 60.19954684 64.60416568 62.33420226 66.72949219 64.47070312 C67.36840897 65.10557144 68.00732574 65.74043976 68.66560364 66.39454651 C73 70.77147008 73 70.77147008 73 73 C71.78828125 73.36351562 70.5765625 73.72703125 69.328125 74.1015625 C68.52761719 74.34197266 67.72710937 74.58238281 66.90234375 74.83007812 C65.11906022 75.36453792 63.33519451 75.89705865 61.55078125 76.42773438 C56.80498936 77.84215342 52.07346314 79.2876801 47.359375 80.8046875 C46.46057617 81.08876465 45.56177734 81.3728418 44.63574219 81.66552734 C42.90345265 82.21396803 41.17474362 82.77387386 39.45019531 83.34619141 C38.66225586 83.59288574 37.87431641 83.83958008 37.0625 84.09375 C36.37285156 84.31740234 35.68320312 84.54105469 34.97265625 84.77148438 C32.29831859 85.08128389 31.31322005 84.38810594 29 83 C27.27102651 81.44580448 25.59581757 79.83114998 23.95605469 78.18310547 C23.46779205 77.69513489 22.97952942 77.20716431 22.47647095 76.70440674 C20.87015038 75.09669725 19.27102287 73.48202899 17.671875 71.8671875 C16.55701683 70.74859765 15.44171513 69.63044971 14.32598877 68.51272583 C11.39529391 65.57440675 8.47065578 62.63013045 5.54724121 59.68457031 C2.56117275 56.67801738 -0.43058859 53.67714118 -3.421875 50.67578125 C-9.28683456 44.78939314 -15.14540732 38.896699 -21 33 C-16.2578125 28.23583984 -16.2578125 28.23583984 -13.9375 26.11328125 C-6.03529547 18.76869195 -2.69213696 10.2870274 0 0 Z " fill="#FB414C" transform="translate(423,291)"/>
<path d="M0 0 C12.49111658 4.47525418 20.15111589 18.62442364 26.74458313 29.27165222 C28.55297532 32.16683971 30.45654939 35.00171099 32.35005188 37.84196472 C16.84005188 53.35196472 1.33005188 68.86196472 -14.64994812 84.84196472 C-16.70134624 81.76486755 -17.54046265 79.30725915 -18.58744812 75.77946472 C-19.12112 74.04696472 -19.12112 74.04696472 -19.66557312 72.27946472 C-20.64994812 68.84196472 -20.64994812 68.84196472 -21.25932312 65.90446472 C-22.26184396 61.17624243 -22.26184396 61.17624243 -25.20463562 57.51383972 C-27.65157822 56.31417137 -30.02128129 55.58210702 -32.64994812 54.84196472 C-33.369245 54.63200867 -34.08854187 54.42205261 -34.82963562 54.20573425 C-40.08370514 52.67436003 -45.35762914 51.23498072 -50.64994812 49.84196472 C-49.12331562 46.25730277 -46.99994872 43.91627236 -44.27958679 41.14933777 C-43.37492172 40.22545761 -42.47025665 39.30157745 -41.53817749 38.34970093 C-40.54864667 37.35047747 -39.55854587 36.3518182 -38.56791687 35.35368347 C-37.55141914 34.32567637 -36.53492443 33.29766627 -35.51843262 32.26965332 C-33.38962653 30.11987459 -31.25623058 27.97476042 -29.1204071 25.83195496 C-26.38288138 23.08342738 -23.6644176 20.31682258 -20.9499464 17.54555035 C-18.85903999 15.41743989 -16.75487969 13.30282269 -14.64682961 11.1917057 C-13.63831972 10.17713743 -12.63482061 9.15756287 -11.63648033 8.13298607 C-10.24137208 6.70384201 -8.82536573 5.2951884 -7.40849304 3.88761902 C-6.60844345 3.08027817 -5.80839386 2.27293732 -4.98410034 1.44113159 C-2.64994812 -0.15803528 -2.64994812 -0.15803528 0 0 Z " fill="#C1D2ED" transform="translate(120.64994812011719,330.1580352783203)"/>
<path d="M0 0 C3.01394567 1.16401726 4.66834648 2.97565169 6.94158936 5.26722717 C7.63009224 5.95507294 7.63009224 5.95507294 8.33250427 6.65681458 C9.84386167 8.17025754 11.34432256 9.69403879 12.84490967 11.21815491 C13.89228827 12.27113028 14.94033236 13.32344409 15.98901367 14.37512207 C18.74439762 17.14194835 21.49065291 19.91766575 24.23510742 22.69532776 C27.03838848 25.52932277 29.8502046 28.35482118 32.66131592 31.18104553 C38.17361363 36.72549661 43.67629572 42.27936775 49.17303467 47.83924866 C48.17303467 49.83924866 48.17303467 49.83924866 45.14569092 51.02284241 C43.84478689 51.44847152 42.54124257 51.86609272 41.23553467 52.27674866 C40.60840576 52.48106506 39.98127686 52.68538147 39.33514404 52.89588928 C38.69512451 53.10278381 38.05510498 53.30967834 37.39569092 53.52284241 C36.72811768 53.74488342 36.06054443 53.96692444 35.3727417 54.19569397 C33.17303467 54.83924866 33.17303467 54.83924866 30.57879639 55.30311584 C25.36837057 56.33740015 25.36837057 56.33740015 21.75531006 59.96498108 C20.68028926 62.69023731 19.89069357 65.37431502 19.17303467 68.21424866 C18.63175796 70.0971733 18.09010327 71.97998934 17.54803467 73.86268616 C17.21932373 75.11444641 17.21932373 75.11444641 16.88397217 76.39149475 C16.13949687 78.9547191 15.20098717 81.37754403 14.17303467 83.83924866 C11.83245386 81.84726499 9.50060617 79.84635742 7.17303467 77.83924866 C6.35834717 77.14315491 5.54365967 76.44706116 4.70428467 75.72987366 C3.88959717 75.02346741 3.07490967 74.31706116 2.23553467 73.58924866 C1.46338623 72.92409241 0.69123779 72.25893616 -0.10430908 71.57362366 C-1.82696533 69.83924866 -1.82696533 69.83924866 -1.82696533 67.83924866 C-2.48696533 67.83924866 -3.14696533 67.83924866 -3.82696533 67.83924866 C-3.82696533 67.17924866 -3.82696533 66.51924866 -3.82696533 65.83924866 C-4.48696533 65.83924866 -5.14696533 65.83924866 -5.82696533 65.83924866 C-8.51112711 63.37272162 -10.85453475 60.80497316 -13.13946533 57.96424866 C-15.10526654 55.55752008 -17.2181636 53.54924598 -19.57696533 51.52674866 C-22.74608821 48.79996989 -25.85601157 46.02951972 -28.88946533 43.15174866 C-29.66419189 42.42600647 -30.43891846 41.70026428 -31.23712158 40.95252991 C-31.76177002 40.25514709 -32.28641846 39.55776428 -32.82696533 38.83924866 C-32.2098976 34.52196273 -29.67616254 31.29706294 -27.26446533 27.77674866 C-26.81264893 27.1128009 -26.36083252 26.44885315 -25.89532471 25.76478577 C-24.97574982 24.41865913 -24.05308049 23.07464094 -23.1272583 21.73280334 C-21.98080993 20.06328521 -20.85714369 18.37817157 -19.73712158 16.69081116 C-15.93229295 11.13529451 -7.72170314 -0.67941856 0 0 Z " fill="#C1D2ED" transform="translate(392.82696533203125,330.16075134277344)"/>
<path d="M0 0 C13.95813703 1.16317809 13.95813703 1.16317809 20 3.625 C20.67224609 3.88933838 21.34449219 4.15367676 22.03710938 4.42602539 C31.17648051 8.13970861 41.77888298 13.07039712 48 21 C48.29430584 24.23736427 47.30628857 26.20957789 46.15234375 29.1875 C43.97648006 34.96631207 42.23434206 40.67042185 40.875 46.6875 C40.71668701 47.36844727 40.55837402 48.04939453 40.39526367 48.75097656 C38.70960249 56.48362681 37.99340138 64.05278899 37 72 C24.79 72 12.58 72 0 72 C0 48.24 0 24.48 0 0 Z " fill="#FE8D63" transform="translate(262,137)"/>
<path d="M0 0 C0 23.76 0 47.52 0 72 C-12.21 72 -24.42 72 -37 72 C-37.3403125 67.8853125 -37.3403125 67.8853125 -37.6875 63.6875 C-38.94116884 50.74158875 -41.78728412 37.71071164 -47.3984375 25.91015625 C-48.17333446 23.4496068 -48.02648801 22.36558828 -47 20 C-35.29474565 7.61844206 -16.86017941 0 0 0 Z " fill="#FE8D63" transform="translate(250,137)"/>
<path d="M0 0 C12.21 0 24.42 0 37 0 C37 23.43 37 46.86 37 71 C17.7564369 69.25058517 3.73352069 62.02445398 -11 50 C-10.36577192 45.39127596 -9.16167709 41.2615146 -7.625 36.875 C-3.42855396 24.53464195 -1.55664593 13.23149039 0 0 Z " fill="#FE8D63" transform="translate(213,220)"/>
<path d="M0 0 C12.21 0 24.42 0 37 0 C37.4125 3.155625 37.825 6.31125 38.25 9.5625 C39.94188861 21.76509295 42.64116835 33.30260446 47.36328125 44.73046875 C48.11760822 47.41920475 48.19368051 48.47220597 47 51 C34.67534466 62.67712529 17.05787302 71 0 71 C0 47.57 0 24.14 0 0 Z " fill="#FE8D63" transform="translate(262,220)"/>
<path d="M0 0 C0.82222554 4.29605732 1.11770795 8.33966603 1.09765625 12.7109375 C1.09282227 14.57685547 1.09282227 14.57685547 1.08789062 16.48046875 C1.07532227 18.40826172 1.07532227 18.40826172 1.0625 20.375 C1.05798828 21.68339844 1.05347656 22.99179688 1.04882812 24.33984375 C1.03707594 27.55994281 1.02064543 30.7799477 1 34 C-2.82096297 35.31105217 -6.54266318 36.35068595 -10.50610352 37.14038086 C-18.39797131 38.76035467 -25.66231851 41.25813852 -33.0625 44.4375 C-33.93011963 44.80883057 -34.79773926 45.18016113 -35.69165039 45.56274414 C-40.56502682 47.72090669 -44.90961945 50.09945036 -49.20874023 53.26196289 C-51 54 -51 54 -52.88574219 53.4440918 C-57.45631736 50.32227285 -61.25901303 46.23286972 -65.18334961 42.35205078 C-66.80932141 40.75312571 -68.45765883 39.17978457 -70.10742188 37.60546875 C-71.14210217 36.58743665 -72.17535604 35.56795233 -73.20703125 34.546875 C-74.1503833 33.62745117 -75.09373535 32.70802734 -76.06567383 31.76074219 C-78 29 -78 29 -77.89526367 25.77685547 C-76.15367442 20.37493669 -71.50760858 17.42312145 -66.71484375 14.703125 C-60.09488532 11.56914811 -53.58808242 10.9579126 -46.34008789 10.70996094 C-31.99591344 10.20271851 -18.64197899 7.87899588 -5.9140625 0.84765625 C-4 0 -4 0 0 0 Z " fill="#FDE659" transform="translate(236,46)"/>
<path d="M0 0 C13.03355277 -0.47394737 26.16891715 1.90239689 39 4 C36.77437158 11.31511696 33.72720512 17.9794145 30.31640625 24.80664062 C25.29167323 35.10142191 23.5108959 44.38507659 22.875 55.8125 C22.7292613 58.1941771 22.58092544 60.57569704 22.4296875 62.95703125 C22.37022949 63.99835205 22.31077148 65.03967285 22.24951172 66.11254883 C22.01647009 68.80940145 21.58847071 71.36038398 21 74 C20.67 73.01 20.34 72.02 20 71 C18.02189652 70.27092452 16.01683114 69.61387018 14 69 C12.07810045 68.03223026 10.17966538 67.01674719 8.3046875 65.9609375 C7.25925781 65.38085938 6.21382813 64.80078125 5.13671875 64.203125 C2.95296102 62.97917456 0.77067868 61.75258822 -1.41015625 60.5234375 C-2.45300781 59.9459375 -3.49585938 59.3684375 -4.5703125 58.7734375 C-5.98981201 57.97558838 -5.98981201 57.97558838 -7.43798828 57.16162109 C-10.13833009 55.72470691 -10.13833009 55.72470691 -14 56 C-12.51581428 51.52967997 -11.02487428 47.06209535 -9.5 42.60546875 C-4.66576996 28.42432145 -1.5014268 14.9082849 0 0 Z " fill="#FDC859" transform="translate(391,219)"/>
<path d="M0 0 C7.50586405 3.1665364 12.41394968 10.97731813 16 18 C15.52691406 18.4640625 15.05382812 18.928125 14.56640625 19.40625 C-1.46276867 36.15408189 -8.19002209 58.5201767 -11 81 C-18.59 81 -26.18 81 -34 81 C-33.50480721 50.54564321 -21.73053888 21.73053888 0 0 Z " fill="#FD5637" transform="translate(166,128)"/>
<path d="M0 0 C0.55268555 0.71567139 1.10537109 1.43134277 1.67480469 2.16870117 C4.04696378 5.05718595 6.55294916 7.6660134 9.203125 10.30078125 C9.6857782 10.7820195 10.1684314 11.26325775 10.66571045 11.75907898 C12.19145328 13.2792727 13.72065469 14.79593138 15.25 16.3125 C16.29189828 17.34937669 17.33356722 18.38648389 18.375 19.42382812 C20.91402154 21.95188826 23.45615482 24.47679261 26 27 C24.78163007 30.65510978 23.73731732 31.07449396 20.5625 33.125 C14.90275821 36.96265967 9.962382 41.3084382 5 46 C4.24847656 46.68707031 3.49695313 47.37414062 2.72265625 48.08203125 C-3.88133365 54.33783187 -8.90128742 61.51692078 -14 69 C-17.42363283 64.4735469 -20.67485647 59.83062222 -23.9375 55.1875 C-24.55818359 54.31029297 -25.17886719 53.43308594 -25.81835938 52.52929688 C-29.13944346 47.80055415 -32.23689444 43.07608115 -35 38 C-34.31035156 37.5153125 -33.62070313 37.030625 -32.91015625 36.53125 C-31.97042969 35.8609375 -31.03070313 35.190625 -30.0625 34.5 C-28.68771484 33.52546875 -28.68771484 33.52546875 -27.28515625 32.53125 C-18.830231 26.14088396 -12.73040949 19.39062846 -6.9375 10.5 C-6.26267578 9.48679687 -5.58785156 8.47359375 -4.89257812 7.4296875 C-3.25025661 4.9603814 -1.61984526 2.48408318 0 0 Z " fill="#FDC859" transform="translate(157,72)"/>
<path d="M0 0 C7.59 0 15.18 0 23 0 C23.226875 2.805 23.45375 5.61 23.6875 8.5 C25.6320287 28.26456334 33.31558574 46.64637681 45.41015625 62.36328125 C47 65 47 65 47.015625 66.99609375 C45.55600193 69.87604235 43.71618057 72.23988133 41.6875 74.75 C40.90761719 75.73484375 40.12773437 76.7196875 39.32421875 77.734375 C37 80 37 80 33 80 C22.34637987 69.94428712 15.0960153 56.12285928 9 43 C8.63132813 42.22785156 8.26265625 41.45570313 7.8828125 40.66015625 C4.54246144 33.08610442 3.02407347 24.97873935 1.39306641 16.89990234 C1.09365511 15.45268577 0.75005211 14.01453668 0.38671875 12.58203125 C-0.23479547 8.4323252 0 4.19599097 0 0 Z " fill="#FD5637" transform="translate(132,220)"/>
<path d="M0 0 C4.19577809 0.66001004 7.73122641 2.075073 11.625 3.75 C23.46286637 8.65227988 36.1587913 12.36846515 49 13 C50.32437468 17.49098848 49.55827075 20.4960156 48.25 24.9375 C46.39024278 31.37407242 44.99700059 37.76820788 43.80859375 44.3671875 C43.54175781 45.23601562 43.27492187 46.10484375 43 47 C38.80579598 48.39806801 36.39608123 46.56043707 32.625 44.75 C22.06061938 39.93612269 11.9661558 37.71549446 0.37890625 37.37744141 C-3.30768393 37.24696721 -5.78612511 36.7653679 -9 35 C-8.06995093 30.8524595 -7.12960514 26.70731717 -6.1875 22.5625 C-5.79594727 20.81549805 -5.79594727 20.81549805 -5.39648438 19.03320312 C-3.91544695 12.54223665 -2.23406393 6.27282214 0 0 Z " fill="#FDE659" transform="translate(193,335)"/>
<path d="M0 0 C6 2 6 2 8.19140625 2.765625 C8.95324219 3.02859375 9.71507812 3.2915625 10.5 3.5625 C11.56734375 3.93568359 11.56734375 3.93568359 12.65625 4.31640625 C19.55099089 6.32737234 26.62124964 6.32532591 33.74414062 6.60546875 C37.92325438 6.78730566 41.92115729 6.9824093 46 8 C40.29577608 14.68835342 34.54172648 21.30664829 28.51831055 27.71069336 C27.29689866 29.02950547 26.09579938 30.36742166 24.91577148 31.72338867 C15.37787282 42.6440513 15.37787282 42.6440513 9.8192749 43.22979736 C4.55878416 42.83160536 -0.20307358 41.10767219 -5 39 C-5.69644623 38.69714081 -6.39289246 38.39428162 -7.11044312 38.08224487 C-13.3187046 35.3267427 -18.7675068 32.34261341 -24 28 C-24.99 27.34 -25.98 26.68 -27 26 C-24.337658 23.30818725 -21.66933333 20.62237853 -19 17.9375 C-18.25621094 17.18533203 -17.51242188 16.43316406 -16.74609375 15.65820312 C-12.5089229 11.40260979 -8.19289017 7.31651906 -3.62890625 3.41235352 C-2.37438277 2.32461096 -1.17409817 1.17409817 0 0 Z " fill="#D5294C" transform="translate(160,375)"/>
<path d="M0 0 C3.31044702 1.31022715 5.44207326 3.72328185 7.87670898 6.23266602 C8.66727692 7.02960121 8.66727692 7.02960121 9.47381592 7.84263611 C11.15175586 9.53733801 12.81895127 11.24218193 14.48608398 12.94750977 C15.62341143 14.09988722 16.76142465 15.25158829 17.90014648 16.40258789 C20.6868039 19.22228161 23.4638719 22.05111565 26.23608398 24.88500977 C17.29491614 33.94130389 6.40174756 38.56126834 -5.76391602 41.88500977 C-6.66996582 42.22540283 -7.57601562 42.5657959 -8.50952148 42.91650391 C-13.0402227 42.87265841 -14.504255 40.95100443 -17.62753296 37.84011841 C-18.34027374 37.09438568 -19.05301453 36.34865295 -19.78735352 35.58032227 C-20.53352936 34.82661346 -21.2797052 34.07290466 -22.04849243 33.2963562 C-24.42880494 30.88347726 -26.78342738 28.44710286 -29.13891602 26.01000977 C-30.74803353 24.37435945 -32.3586932 22.74022473 -33.97094727 21.10766602 C-36.90246281 18.1257698 -39.83111864 15.14139579 -42.73803711 12.13549805 C-43.61690079 11.22829514 -43.61690079 11.22829514 -44.51351929 10.30276489 C-45.76391602 8.88500977 -45.76391602 8.88500977 -45.76391602 7.88500977 C-45.08514404 7.84537109 -44.40637207 7.80573242 -43.70703125 7.76489258 C-23.03167244 7.10672931 -23.03167244 7.10672931 -3.62719727 0.69750977 C-1.76391602 -0.11499023 -1.76391602 -0.11499023 0 0 Z " fill="#D4294C" transform="translate(351.763916015625,375.114990234375)"/>
<path d="M0 0 C0.14695312 0.90621094 0.29390625 1.81242187 0.4453125 2.74609375 C2.6754435 14.85801211 7.16856105 21.71296482 16 30 C17.32 31.32 18.64 32.64 20 34 C11.42 42.58 2.84 51.16 -6 60 C-16.89371939 51.82971046 -23.32402509 44.64744559 -30 33 C-33.27196452 34.43258772 -35.43203956 36.18825316 -37.94238281 38.71533203 C-39.08311249 39.8562883 -39.08311249 39.8562883 -40.24688721 41.02029419 C-41.05744568 41.84117523 -41.86800415 42.66205627 -42.703125 43.5078125 C-43.54091492 44.34843231 -44.37870483 45.18905212 -45.24188232 46.05514526 C-47.91598431 48.74044001 -50.58304724 51.43260655 -53.25 54.125 C-55.06204062 55.94707155 -56.87453518 57.76869177 -58.6875 59.58984375 C-63.13028036 64.05467252 -67.56730165 68.52516283 -72 73 C-72.66 72.67 -73.32 72.34 -74 72 C-64.65276679 62.60651672 -55.30020616 53.21837435 -45.94072151 43.83709717 C-41.59535606 39.48127476 -37.25187859 35.12360328 -32.91259766 30.76171875 C-28.72836702 26.55582783 -24.53933251 22.35477831 -20.34685898 18.15710449 C-18.74466158 16.55119905 -17.14423142 14.94352853 -15.54556656 13.33410645 C-13.31377704 11.08789266 -11.07590258 8.84792083 -8.83642578 6.609375 C-7.83733185 5.59949524 -7.83733185 5.59949524 -6.8180542 4.56921387 C-6.20948578 3.96339478 -5.60091736 3.35757568 -4.97390747 2.73339844 C-4.4447983 2.20244568 -3.91568913 1.67149292 -3.37054634 1.12445068 C-2 0 -2 0 0 0 Z " fill="#D32A4C" transform="translate(90,290)"/>
<path d="M0 0 C4.29067546 1.65236651 7.1429553 4.8905207 10.296875 8.1015625 C10.89050842 8.69802582 11.48414185 9.29448914 12.09576416 9.9090271 C13.98526627 11.8096981 15.86768392 13.71721474 17.75 15.625 C19.03209065 16.91712468 20.31463761 18.20879676 21.59765625 19.5 C24.73708432 22.66144479 27.87017801 25.8290461 31 29 C30.01 29.495 30.01 29.495 29 30 C28.7009375 30.90234375 28.401875 31.8046875 28.09375 32.734375 C24.66860468 42.96088031 14.57192612 54.21403694 5 59 C-3.58 50.42 -12.16 41.84 -21 33 C-16 28 -16 28 -13.9375 26.11328125 C-6.03529547 18.76869195 -2.69213696 10.2870274 0 0 Z " fill="#D4294C" transform="translate(423,291)"/>
<path d="M0 0 C0.71542969 0.73605469 1.43085938 1.47210938 2.16796875 2.23046875 C19.38394591 19.06650711 39.70141324 25.08767666 63 28 C63 33.61 63 39.22 63 45 C36.75042201 45.43835248 8.29905599 35.20251872 -11 17 C-11 12.82495814 -8.68542017 10.92541043 -6.0625 7.9375 C-2.68739046 4.20898958 -2.68739046 4.20898958 0 0 Z " fill="#EE3E37" transform="translate(187,293)"/>
<path d="M0 0 C12.05654134 4.15206168 17.76025816 14.68976329 24.20019531 24.91577148 C26.67096222 28.83466159 29.29182759 32.35053296 32.36425781 35.81420898 C30.87772275 39.28050733 28.9070343 41.50442935 26.23144531 44.14233398 C25.42578125 44.94155273 24.62011719 45.74077148 23.79003906 46.56420898 C22.94828125 47.38920898 22.10652344 48.21420898 21.23925781 49.06420898 C20.38976562 49.90467773 19.54027344 50.74514648 18.66503906 51.61108398 C16.56920858 53.68336581 14.46885068 55.75083291 12.36425781 57.81420898 C10.3128597 54.73711181 9.47374329 52.27950341 8.42675781 48.75170898 C7.89308594 47.01920898 7.89308594 47.01920898 7.34863281 45.25170898 C6.36425781 41.81420898 6.36425781 41.81420898 5.75488281 38.87670898 C4.75236197 34.1484867 4.75236197 34.1484867 1.80957031 30.48608398 C-0.63737228 29.28641563 -3.00707536 28.55435129 -5.63574219 27.81420898 C-6.35503906 27.60425293 -7.07433594 27.39429688 -7.81542969 27.17797852 C-13.06949921 25.64660429 -18.3434232 24.20722498 -23.63574219 22.81420898 C-21.2116615 17.19325677 -16.56225671 13.29115045 -12.32324219 9.00170898 C-11.04030273 7.65689453 -11.04030273 7.65689453 -9.73144531 6.28491211 C-8.89935547 5.44250977 -8.06726563 4.60010742 -7.20996094 3.73217773 C-6.45287842 2.95640381 -5.6957959 2.18062988 -4.91577148 1.38134766 C-2.63574219 -0.18579102 -2.63574219 -0.18579102 0 0 Z " fill="#E8F4EC" transform="translate(93.6357421875,357.185791015625)"/>
<path d="M0 0 C2.97846663 1.1919331 4.65243462 3.03924432 6.89477539 5.32470703 C7.78422852 6.22382813 8.67368164 7.12294922 9.59008789 8.04931641 C10.51047852 8.99484375 11.43086914 9.94037109 12.37915039 10.91455078 C13.32376712 11.87422051 14.26907234 12.83321307 15.21508789 13.79150391 C17.52664211 16.13843906 19.83091379 18.49208469 22.12915039 20.85205078 C21.12915039 22.85205078 21.12915039 22.85205078 18.10180664 24.03564453 C16.80090262 24.46127364 15.49735829 24.87889484 14.19165039 25.28955078 C13.56452148 25.49386719 12.93739258 25.69818359 12.29125977 25.90869141 C11.65124023 26.11558594 11.0112207 26.32248047 10.35180664 26.53564453 C9.6842334 26.75768555 9.01666016 26.97972656 8.32885742 27.20849609 C6.12915039 27.85205078 6.12915039 27.85205078 3.53491211 28.31591797 C-1.67551371 29.35020227 -1.67551371 29.35020227 -5.28857422 32.9777832 C-6.36359502 35.70303943 -7.1531907 38.38711714 -7.87084961 41.22705078 C-8.41212631 43.10997543 -8.953781 44.99279146 -9.49584961 46.87548828 C-9.71499023 47.70999512 -9.93413086 48.54450195 -10.15991211 49.40429688 C-10.9043874 51.96752122 -11.84289711 54.39034616 -12.87084961 56.85205078 C-15.21143042 54.86006711 -17.5432781 52.85915954 -19.87084961 50.85205078 C-20.68553711 50.15595703 -21.50022461 49.45986328 -22.33959961 48.74267578 C-23.56163086 47.68306641 -23.56163086 47.68306641 -24.80834961 46.60205078 C-25.58049805 45.93689453 -26.35264648 45.27173828 -27.14819336 44.58642578 C-28.87084961 42.85205078 -28.87084961 42.85205078 -28.87084961 40.85205078 C-29.53084961 40.85205078 -30.19084961 40.85205078 -30.87084961 40.85205078 C-30.87084961 40.19205078 -30.87084961 39.53205078 -30.87084961 38.85205078 C-31.53084961 38.85205078 -32.19084961 38.85205078 -32.87084961 38.85205078 C-33.36584961 37.36705078 -33.36584961 37.36705078 -33.87084961 35.85205078 C-32.31873497 33.62126641 -30.74663689 31.60539485 -28.99584961 29.53955078 C-25.47372494 25.27312596 -22.27992332 21.04677445 -19.484375 16.26953125 C-15.73447786 9.87423629 -8.52128581 -0.67387436 0 0 Z " fill="#E9F5ED" transform="translate(419.870849609375,357.14794921875)"/>
<path d="M0 0 C3.72691498 1.24230499 4.76098441 2.82528095 7.1875 5.875 C7.90292969 6.75929688 8.61835938 7.64359375 9.35546875 8.5546875 C11 11 11 11 11 14 C9.18493269 15.72324265 7.43175879 17.19623315 5.4375 18.6875 C4.85178223 19.12811768 4.26606445 19.56873535 3.66259766 20.02270508 C-15.20002969 33.83916803 -39.42973029 43.1223938 -63 42 C-63 36.39 -63 30.78 -63 25 C-60.751875 24.731875 -58.50375 24.46375 -56.1875 24.1875 C-36.87352795 21.66828625 -16.58018066 14.12302609 -1.8046875 1.1875 C-1.20914063 0.795625 -0.61359375 0.40375 0 0 Z " fill="#EE3E37" transform="translate(325,296)"/>
<path d="M0 0 C28.62330097 0.53501497 52.39070785 12.16329308 75 29 C73.48446596 32.47775179 71.4226544 34.9557984 68.875 37.75 C68.15054688 38.54921875 67.42609375 39.3484375 66.6796875 40.171875 C66.12539063 40.77515625 65.57109375 41.3784375 65 42 C61.78250226 40.5584973 59.00546668 38.64770221 56.12866211 36.62353516 C38.99321206 24.6654628 20.67377897 19.17618726 0 17 C0 11.39 0 5.78 0 0 Z " fill="#FC8C63" transform="translate(262,90)"/>
<path d="M0 0 C3.63 0 7.26 0 11 0 C11.21177414 7.30620777 10.57063125 13.86907812 9 21 C8.78142334 21.99676758 8.56284668 22.99353516 8.33764648 24.02050781 C6.08622644 33.62758947 2.46264489 42.23540217 -2 51 C-2.5053125 52.03382813 -3.010625 53.06765625 -3.53125 54.1328125 C-8.60920634 64.03482737 -15.64453974 72.70153201 -23 81 C-27.08332902 79.44533803 -29.08208993 76.74912156 -31.75 73.375 C-32.54921875 72.37210937 -33.3484375 71.36921875 -34.171875 70.3359375 C-34.77515625 69.56507813 -35.3784375 68.79421875 -36 68 C-35.26910156 67.29746094 -34.53820312 66.59492188 -33.78515625 65.87109375 C-31.04872848 63.13273824 -28.74189476 60.17643866 -26.4375 57.0625 C-25.69371094 56.06347656 -24.94992187 55.06445312 -24.18359375 54.03515625 C-22.69424136 51.96498306 -21.24896224 49.86255876 -19.84375 47.734375 C-18.04479548 45.06643398 -16.76753696 43.59343037 -14 42 C-13.18660156 41.92652344 -12.37320312 41.85304688 -11.53515625 41.77734375 C-8.77968215 41.23874851 -8.77968215 41.23874851 -7.5234375 38.5859375 C-2.99517968 25.92529829 -0.65637136 13.42166268 0 0 Z " fill="#ED3E37" transform="translate(369,220)"/>
<path d="M0 0 C2.66627768 0.47051959 5.08122008 1.03091212 7.6171875 1.99609375 C12.4015083 3.41592105 17.16326128 3.68759859 22.125 4.0625 C24.08616502 4.21719424 26.04711549 4.37463911 28.0078125 4.53515625 C28.87035645 4.600979 29.73290039 4.66680176 30.62158203 4.73461914 C32.82935903 4.9809601 34.86320512 5.40383608 37 6 C35.94804363 12.53177492 32.96342121 18.26755228 30.25 24.25 C29.7240625 25.45914063 29.198125 26.66828125 28.65625 27.9140625 C28.13546875 29.06132813 27.6146875 30.20859375 27.078125 31.390625 C26.60793945 32.44282227 26.13775391 33.49501953 25.65332031 34.57910156 C24 37 24 37 21.52783203 37.90625 C17.95089704 38.0389082 14.93784497 36.95406614 11.625 35.75 C10.67367188 35.42322266 10.67367188 35.42322266 9.703125 35.08984375 C5.38107061 33.58153497 1.19040306 31.84074553 -3 30 C-3.61877873 19.80160987 -1.74126083 10.00188511 0 0 Z " fill="#FDE559" transform="translate(289,52)"/>
<path d="M0 0 C0.66 0.33 1.32 0.66 2 1 C0.68 2.65 -0.64 4.3 -2 6 C0.23906198 9.38331928 2.48115593 12.76460645 4.72607422 16.14404297 C5.48928 17.29387914 6.25165624 18.44426638 7.01318359 19.59521484 C8.10816491 21.24982155 9.20638363 22.90228438 10.3046875 24.5546875 C11.2944458 26.04718018 11.2944458 26.04718018 12.30419922 27.56982422 C13.92052906 30.0373518 13.92052906 30.0373518 16 32 C2.90400552 51.74792818 2.90400552 51.74792818 -8 55 C-10.58911585 46.15844482 -12.60933332 37.31535337 -14.25 28.25 C-14.42499023 27.28562012 -14.59998047 26.32124023 -14.78027344 25.32763672 C-16 18.41789801 -16 18.41789801 -16 15 C-16.66 14.67 -17.32 14.34 -18 14 C-17.03578125 13.32453125 -16.0715625 12.6490625 -15.078125 11.953125 C-13.80193898 11.05228781 -12.52590533 10.15123472 -11.25 9.25 C-10.61578125 8.8065625 -9.9815625 8.363125 -9.328125 7.90625 C-5.92163923 5.49332258 -2.84993043 3.08022784 0 0 Z " fill="#FDC959" transform="translate(346,314)"/>
<path d="M0 0 C0.3403125 1.60875 0.3403125 1.60875 0.6875 3.25 C2.17768542 7.50767263 3.06353401 8.86061631 7 11 C13.50685987 11.92955141 18.78759968 9.96513999 24.9609375 7.95703125 C31.62416396 5.85871443 38.08982469 5.87486604 45 6 C45 6.99 45 7.98 45 9 C43.82566406 9.20753906 42.65132813 9.41507813 41.44140625 9.62890625 C22.46625024 13.17893021 2.57663552 19.99492889 -11.546875 33.75 C-13 35 -13 35 -15 35 C-15.33 35.66 -15.66 36.32 -16 37 C-16.51949219 36.26394531 -17.03898438 35.52789062 -17.57421875 34.76953125 C-21.89176543 28.54920435 -21.89176543 28.54920435 -27.0625 23.0625 C-27.701875 22.381875 -28.34125 21.70125 -29 21 C-28.90438255 17.95936507 -28.02340392 17.0221546 -25.8046875 14.921875 C-5.67625899 0 -5.67625899 0 0 0 Z " fill="#FD5737" transform="translate(205,101)"/>
<path d="M0 0 C5.61 0 11.22 0 17 0 C17.226875 2.289375 17.45375 4.57875 17.6875 6.9375 C18.38181566 13.16045774 19.72397608 18.91497886 21.625 24.875 C25.45058231 37.10332395 25.45058231 37.10332395 24 43 C20.73784534 47.74495224 17.40014667 48.57522632 12 50 C6.81922308 38.50333212 3.35020903 27.38282179 1 15 C0.80277344 14.11441406 0.60554687 13.22882813 0.40234375 12.31640625 C-0.30883638 8.22194198 -0.05528699 4.14652435 0 0 Z " fill="#EE3E37" transform="translate(132,220)"/>
<path d="M0 0 C0 5.28 0 10.56 0 16 C-2.536875 16.2475 -5.07375 16.495 -7.6875 16.75 C-13.37691076 17.35930625 -18.60542965 18.31453666 -24.0625 20.125 C-34.69472379 23.63814128 -34.69472379 23.63814128 -39.78125 21.1171875 C-43.05921015 18.782414 -43.97842793 17.09399258 -44.875 13.1875 C-44.91625 12.135625 -44.9575 11.08375 -45 10 C-37.98259678 6.07025419 -30.75780887 4.02689573 -23 2 C-22.20464844 1.77054687 -21.40929687 1.54109375 -20.58984375 1.3046875 C-13.78055993 -0.50263643 -7.00810149 -0.13607964 0 0 Z " fill="#FD8C63" transform="translate(250,91)"/>
<path d="M0 0 C2 1 2 1 3.21875 4.2109375 C3.65625055 5.59571014 4.08267292 6.98401469 4.5 8.375 C4.72067139 9.10235352 4.94134277 9.82970703 5.16870117 10.57910156 C8.12825595 20.55671417 9.24544156 29.56873358 9 40 C1.41 40 -6.18 40 -14 40 C-14 27.1696253 -9.54468715 9.54468715 0 0 Z " fill="#FC8C63" transform="translate(193,169)"/>
<path d="M0 0 C3.90740099 3.55828612 6.42438106 7.04035487 8.625 11.875 C8.92349854 12.52194824 9.22199707 13.16889648 9.52954102 13.83544922 C13.1888996 22.17182808 15 30.88740809 15 40 C7.41 40 -0.18 40 -8 40 C-8 32.48205766 -7.40186538 26.26244146 -6 19 C-5.855625 18.20335937 -5.71125 17.40671875 -5.5625 16.5859375 C-4.40969309 10.76014546 -2.34213757 5.44603834 0 0 Z " fill="#FD8D63" transform="translate(318,169)"/>
<path d="M0 0 C7.59 0 15.18 0 23 0 C23 7.43073174 22.71263408 13.03858186 21.25 20.0625 C21.01410156 21.31256836 21.01410156 21.31256836 20.7734375 22.58789062 C19.58539847 28.45954504 17.63996724 33.62855746 15 39 C8.03353332 32.58785432 4.9635492 23.52311456 2.125 14.6875 C1.90980713 14.03040039 1.69461426 13.37330078 1.47290039 12.69628906 C0.06678167 8.0864071 0 5.05694118 0 0 Z " fill="#FC8C63" transform="translate(179,220)"/>
<path d="M0 0 C0.7115625 0.73476563 1.423125 1.46953125 2.15625 2.2265625 C10.38953968 10.25628184 19.80231193 15.88470808 30 21 C30 21.33 30 21.66 30 22 C28.9275 22.226875 27.855 22.45375 26.75 22.6875 C22.54807929 24.15817225 21.27264682 25.24139179 19 29 C18.21053391 31.68507329 18.21053391 31.68507329 18 34 C13.31257338 33.43750881 9.76363042 31.36444356 5.8125 28.9375 C5.15628662 28.53990479 4.50007324 28.14230957 3.82397461 27.73266602 C-1.80939867 24.25341199 -6.9873707 20.32855283 -12 16 C-8 10.66666667 -4 5.33333333 0 0 Z " fill="#FC5637" transform="translate(187,293)"/>
<path d="M0 0 C7.59 0 15.18 0 23 0 C22.32719664 7.40083692 21.81496482 12.88582557 19.3125 19.5625 C18.91647583 20.64712524 18.91647583 20.64712524 18.51245117 21.75366211 C16.36912616 27.42754263 14.03823792 33.39618254 10 38 C9.01 38 8.02 38 7 38 C2.70514279 25.0826432 0 13.77863536 0 0 Z " fill="#FD8D63" transform="translate(310,220)"/>
<path d="M0 0 C2.80985557 3.34506615 4.42056259 6.97171947 6 11 C6.26200195 11.66499512 6.52400391 12.32999023 6.79394531 13.01513672 C11.52924473 25.3310431 14.5191765 38.7609993 14 52 C10.37 52 6.74 52 3 52 C2.84144531 50.87464844 2.68289063 49.74929687 2.51953125 48.58984375 C0.25215571 33.34312172 -4.19889375 19.85929898 -11 6 C-10.37351562 5.81824219 -9.74703125 5.63648438 -9.1015625 5.44921875 C-7.87566406 5.07216797 -7.87566406 5.07216797 -6.625 4.6875 C-5.81289063 4.44386719 -5.00078125 4.20023438 -4.1640625 3.94921875 C-1.66815371 3.08631815 -1.66815371 3.08631815 0 0 Z " fill="#FC5637" transform="translate(366,157)"/>
<path d="M0 0 C2.99220268 1.36370299 5.29026529 2.94908083 7.75 5.125 C8.67039063 5.93324219 8.67039063 5.93324219 9.609375 6.7578125 C10.06828125 7.16773438 10.5271875 7.57765625 11 8 C9.52908578 11.97275304 7.6510734 15.51552627 5.5234375 19.17578125 C5.19332672 19.74580368 4.86321594 20.31582611 4.52310181 20.90312195 C3.47685993 22.70808352 2.42601425 24.51031402 1.375 26.3125 C0.66115152 27.54213964 -0.05239331 28.77195562 -0.765625 30.00195312 C-2.50690874 33.00334992 -4.25232936 36.00231667 -6 39 C-7.32 39 -8.64 39 -10 39 C-11.37207031 37.62304688 -11.37207031 37.62304688 -12.578125 35.71875 C-13.01640625 35.04199219 -13.4546875 34.36523438 -13.90625 33.66796875 C-14.3496875 32.95253906 -14.793125 32.23710937 -15.25 31.5 C-15.70890625 30.78457031 -16.1678125 30.06914062 -16.640625 29.33203125 C-17.77300788 27.56268301 -18.88816454 25.78233165 -20 24 C-18.33433323 19.82567656 -15.29621163 16.88842371 -12.25 13.6875 C-11.16574357 12.53211557 -10.0824011 11.37587274 -9 10.21875 C-8.48179687 9.66574219 -7.96359375 9.11273438 -7.4296875 8.54296875 C-4.86112908 5.77089067 -2.42547386 2.89709378 0 0 Z " fill="#FDE659" transform="translate(166,316)"/>
<path d="M0 0 C9.1514618 3.58922011 18.08123551 18.23279416 22 27 C21.83984375 29.765625 21.83984375 29.765625 21 32 C18.14839188 34.43225399 16.22681047 34.97164869 12.5 35.4375 C8.27861433 34.90982679 7.09187524 33.86598481 4 31 C2.39245251 28.85298885 0.89393455 26.74184166 -0.5625 24.5 C-3.57069788 19.89607625 -3.57069788 19.89607625 -7.33984375 15.90625 C-9 14 -9 14 -9.00390625 11.55078125 C-7.78982151 8.46596672 -6.2044228 6.59835441 -3.9375 4.1875 C-3.20402344 3.39730469 -2.47054688 2.60710937 -1.71484375 1.79296875 C-1.14894531 1.20128906 -0.58304687 0.60960937 0 0 Z " fill="#FC8C63" transform="translate(344,128)"/>
<path d="M0 0 C2.46140365 2.46140365 3.30326986 4.78456293 4.625 8 C5.07101562 9.0725 5.51703125 10.145 5.9765625 11.25 C7 14 7 14 7 16 C2.81436548 17.15272222 -1.37380816 18.29594185 -5.5625 19.4375 C-7.33463867 19.92573242 -7.33463867 19.92573242 -9.14257812 20.42382812 C-14.75119524 21.9477381 -20.21322277 23.39667961 -26 24 C-26.12117188 23.154375 -26.24234375 22.30875 -26.3671875 21.4375 C-26.53476562 20.303125 -26.70234375 19.16875 -26.875 18 C-27.03742188 16.88625 -27.19984375 15.7725 -27.3671875 14.625 C-28.05610105 10.67863101 -28.9887286 6.87512403 -30 3 C-28.92363281 2.95101562 -27.84726562 2.90203125 -26.73828125 2.8515625 C-18.51046948 2.44031372 -10.55028171 1.7800922 -2.44140625 0.20703125 C-1.63574219 0.13871094 -0.83007812 0.07039062 0 0 Z " fill="#FCC859" transform="translate(415,172)"/>
<path d="M0 0 C3.63 0 7.26 0 11 0 C11.2292277 7.41619033 10.49779411 14.02074736 8.875 21.25 C8.65561768 22.249104 8.43623535 23.24820801 8.21020508 24.27758789 C6.34949513 32.33112556 3.72149713 39.62094898 0 47 C-2.97 45.35 -5.94 43.7 -9 42 C-8.67386719 41.16339844 -8.34773438 40.32679688 -8.01171875 39.46484375 C-3.17075556 26.56988871 -0.67429858 13.78824333 0 0 Z " fill="#FC5637" transform="translate(369,220)"/>
<path d="M0 0 C0.33 0.66 0.66 1.32 1 2 C2.93003497 2.128669 4.86261217 2.25085963 6.796875 2.265625 C9.59237672 3.19745891 11.25279879 4.68853095 13.04541016 7.0078125 C15.0010315 11.08910922 14.22561797 15.48822209 13.8125 19.875 C13.74224609 20.84953125 13.67199219 21.8240625 13.59960938 22.828125 C13.42368977 25.22063166 13.21508 27.61069541 13 30 C7.39 30 1.78 30 -4 30 C-3.60377328 19.5396145 -3.1333891 10.05049334 0 0 Z " fill="#EE3E37" transform="translate(136,179)"/>
<path d="M0 0 C0.91265625 0.58394531 0.91265625 0.58394531 1.84375 1.1796875 C2.7203125 1.73914063 3.596875 2.29859375 4.5 2.875 C5.48871094 3.50792969 6.47742188 4.14085937 7.49609375 4.79296875 C10.05052468 6.41526691 12.6300344 7.99029322 15.22265625 9.55078125 C15.94066406 9.98729004 16.65867187 10.42379883 17.3984375 10.87353516 C18.82451981 11.73941681 20.25544183 12.59738463 21.69140625 13.44677734 C24.39446024 15.0972505 26.58300823 16.46956966 28.55078125 18.97265625 C29.17156605 21.77428504 28.54776077 23.55269928 27.625 26.25 C27.32851562 27.14203125 27.03203125 28.0340625 26.7265625 28.953125 C26.36691406 29.96632812 26.36691406 29.96632812 26 31 C17 25 8 19 -1 13 C-1.30245293 8.38759286 -0.97678384 4.5136866 0 0 Z " fill="#FDC959" transform="translate(99,151)"/>
<path d="M0 0 C11.39215665 -0.37973856 21.45077041 1.7221628 32 6 C28.20949949 7.38676848 25.47352828 6.5849304 21.625 5.625 C14.38024754 3.95840253 7.42110401 3.32706993 0 3 C0 2.01 0 1.02 0 0 Z " fill="#FF5E3D" transform="translate(262,107)"/>
</svg>
